<?xml version="1.0" encoding="utf-8"?>
<!-- Svg Vector Icons : http://www.onlinewebfonts.com/icon -->
<!DOCTYPE svg PUBLIC "-//W3C//DTD SVG 1.1//EN" "http://www.w3.org/Graphics/SVG/1.1/DTD/svg11.dtd">
<svg version="1.1" xmlns="http://www.w3.org/2000/svg" xmlns:xlink="http://www.w3.org/1999/xlink" x="0px" y="0px" viewBox="0 0 1000 1000" enable-background="new 0 0 1000 1000" xml:space="preserve">
<metadata> Svg Vector Icons : http://www.onlinewebfonts.com/icon </metadata>
<g><g><g><path d="M177.6,500c-40.6,0-73.6,32.9-73.6,73.6c0,3.1,0.3,6.2,0.6,9.3c4.6,36.3,35.4,64.3,72.9,64.3c38.5,0,70.1-29.6,73.3-67.3c0.2-2.1,0.3-4.2,0.3-6.3C251.2,532.9,218.3,500,177.6,500z M140.8,545.9l15,15c-1.2,2-2.1,4.2-2.7,6.5H132C133.1,559.3,136.2,552,140.8,545.9z M131.9,580.1h21.3c0.6,2.3,1.5,4.4,2.7,6.4l-15,15C136.2,595.4,133.1,588.1,131.9,580.1z M171.3,619.3c-8-1.1-15.2-4.2-21.3-8.8l15-15c2,1.1,4.1,2,6.4,2.6V619.3z M171.3,549.1c-2.3,0.6-4.5,1.5-6.5,2.7l-15-15c6.2-4.7,13.5-7.8,21.5-8.9V549.1z M184,527.9c8,1.1,15.3,4.2,21.5,8.9l-15,15c-2-1.2-4.2-2.1-6.5-2.7V527.9z M184,619.3v-21.2c2.3-0.6,4.4-1.4,6.4-2.6l15,15C199.2,615,192,618.2,184,619.3z M214.5,601.5l-15.1-15.1c1.2-2,2.1-4.1,2.7-6.4h21.1C222.2,588.1,219.2,595.4,214.5,601.5z M202.2,567.3c-0.6-2.3-1.5-4.5-2.7-6.5l15-15c4.6,6.2,7.7,13.5,8.8,21.5L202.2,567.3L202.2,567.3z"/><path d="M785.2,500.7c-40.5,0-73.2,32.8-73.2,73.3c0,3.1,0.2,6.2,0.6,9.2c4.5,36.1,35.3,64,72.6,64c38.3,0,69.8-29.5,72.9-67c0.2-2.1,0.3-4.1,0.3-6.3C858.4,533.4,825.7,500.7,785.2,500.7z M748.5,546.3l14.9,14.9c-1.2,2-2.1,4.2-2.7,6.4h-21.1C740.8,559.7,743.9,552.4,748.5,546.3z M739.7,580.4h21.2c0.6,2.3,1.5,4.4,2.6,6.3l-15,15C743.9,595.6,740.8,588.3,739.7,580.4z M778.9,619.4c-7.9-1.1-15.1-4.2-21.2-8.8l14.9-14.9c2,1.1,4.1,2,6.4,2.6L778.9,619.4L778.9,619.4z M778.9,549.5c-2.3,0.6-4.5,1.5-6.5,2.7l-14.9-14.9c6.1-4.6,13.4-7.7,21.4-8.8V549.5z M791.5,528.5c8,1.1,15.3,4.2,21.4,8.8L798,552.2c-2-1.2-4.2-2.1-6.5-2.7V528.5z M791.5,619.4v-21.1c2.3-0.6,4.4-1.4,6.4-2.6l14.9,14.9C806.7,615.2,799.5,618.3,791.5,619.4z M821.9,601.8l-15-15c1.1-2,2.1-4.1,2.7-6.3h21C829.5,588.3,826.5,595.6,821.9,601.8z M809.6,567.7c-0.6-2.3-1.5-4.4-2.7-6.4l14.9-14.9c4.6,6.1,7.7,13.4,8.8,21.4H809.6z"/><path d="M989.7,522.8c-0.3-9.7-3.3-19.1-8.7-27.2l-4-5.9l-17.3-45.7c-3.3-8.6-11.2-14.6-20.4-15.4c-17-1.4-46-3.6-73.6-4.6c-96.6-51.3-275.2-102.9-426.6-46.7c-31.1,11.5-119.9,56.6-119.9,56.6s-144.2-3.6-247,33c-40.5,14.4-66.1,54.7-61.8,97.5c0.9,8.6,2.1,16.2,3.4,22.3c2,9.7,10,17.1,19.9,18.2l64,7c-4-8.4-6.9-17.5-8.1-27.2c-0.5-4-0.8-7.6-0.8-11.2c0-49,39.8-88.8,88.8-88.8c49,0,88.9,39.9,88.9,88.8c0,2.6-0.2,5.1-0.4,7.6c-0.9,11-3.9,21.4-8.6,30.9h444.2l3.6-0.2c-3.9-8.3-6.7-17.3-7.9-26.8c-0.5-4-0.8-7.6-0.8-11.1c0-48.8,39.7-88.5,88.5-88.5s88.5,39.7,88.5,88.5c0,2.6-0.2,5-0.4,7.5c-0.6,7.2-2.2,14.2-4.5,20.8l10-0.6l68.8-9.1c12-1.6,22.5-8.6,28.6-19.1l6.9-11.8c4.7-8.2,7.1-17.5,6.8-27L989.7,522.8z M745.9,434.7H409.1c0,0,2-8-6.8-17.6c0,0,86.1-55.5,219.1-41.7c36.6,3.8,81.3,6.4,142.2,38.1L745.9,434.7z"/></g></g><g></g><g></g><g></g><g></g><g></g><g></g><g></g><g></g><g></g><g></g><g></g><g></g><g></g><g></g><g></g></g>
</svg>