<?xml version="1.0" encoding="utf-8"?>
<!-- Svg Vector Icons : http://www.onlinewebfonts.com/icon -->
<!DOCTYPE svg PUBLIC "-//W3C//DTD SVG 1.1//EN" "http://www.w3.org/Graphics/SVG/1.1/DTD/svg11.dtd">
<svg version="1.1" xmlns="http://www.w3.org/2000/svg" xmlns:xlink="http://www.w3.org/1999/xlink" x="0px" y="0px" viewBox="0 0 1000 1000" enable-background="new 0 0 1000 1000" xml:space="preserve">
<metadata> Svg Vector Icons : http://www.onlinewebfonts.com/icon </metadata>
<g><g><path d="M774.5,592.1c-45.8,0-83.1,37.2-83.1,83.1c0,45.8,37.2,83,83.1,83c45.8,0,83-37.2,83-83C857.4,629.3,820.3,592.1,774.5,592.1z M774.5,711.7c-20.1,0-36.5-16.4-36.5-36.5c0-20,16.3-36.4,36.5-36.4c20,0,36.4,16.3,36.4,36.4C810.9,695.2,794.5,711.7,774.5,711.7z M55.6,644.9L55.6,644.9L55.6,644.9L55.6,644.9z M10,644.9h45.6c-1.3,5.9-2.1,11.9-2.1,18.1c0,5.2,0.6,10.3,1.5,15.2H10V644.9z M280.3,644.9H315v0v33.3h-34.3c0.7-5,1.2-10,1.2-15.2C281.9,656.8,281.3,650.8,280.3,644.9z M672.9,663c-0.8,5-1.3,10-1.3,15.2c0,3.1,0.1,6.1,0.4,9.2H324.3V663H672.9z M331.3,235.7l0,81.7c-2.4,0-4.6,0-7,0v316V656h349.8c10.2-46.6,51.8-81.7,101.5-81.7c45.5,0,84.3,29.6,98.3,70.5l4.1,2.6h85.4V554H990V235.7H331.3z M939.9,605.6h-13v-51.7h13V605.6z M879,654.3h93.5v24.4h-92.7c0.2-3,0.4-6.1,0.4-9.2C880.3,664.3,879.9,659.3,879,654.3z M13,467.2v36.4v132.2h0h50.6c12.2-48,55.7-83.6,107.4-83.6c51.8,0,95.3,35.7,107.4,83.6h37.3v-319h-234L13,467.2z M290.1,341.1v79h-90.3l-66.8,56.2H43.6l49.9-135.2H290.1z M171.4,586.1c-49.2,0-89.1,39.9-89.1,89.1c0,49.3,39.8,89.1,89.1,89.1c49.2,0,89.1-39.9,89.1-89.1C260.4,626,220.5,586.1,171.4,586.1z M171.3,714.2c-21.5,0-39.1-17.6-39.1-39.1c0-21.5,17.5-39.1,39.1-39.1c21.6,0,39.1,17.5,39.1,39.1C210.4,696.7,192.9,714.2,171.3,714.2z"/></g><g></g><g></g><g></g><g></g><g></g><g></g><g></g><g></g><g></g><g></g><g></g><g></g><g></g><g></g><g></g></g>
</svg>