<?xml version="1.0" encoding="utf-8"?>
<!-- Svg Vector Icons : http://www.onlinewebfonts.com/icon -->
<!DOCTYPE svg PUBLIC "-//W3C//DTD SVG 1.1//EN" "http://www.w3.org/Graphics/SVG/1.1/DTD/svg11.dtd">
<svg version="1.1" xmlns="http://www.w3.org/2000/svg" xmlns:xlink="http://www.w3.org/1999/xlink" x="0px" y="0px" viewBox="0 0 1000 1000" enable-background="new 0 0 1000 1000" xml:space="preserve">
<metadata> Svg Vector Icons : http://www.onlinewebfonts.com/icon </metadata>
<g><path d="M311.6,629.3c10.3-37.9,4.1-71-21.9-98.9c-19.5-20.9-44-30.3-72.6-30.7c-47.5-0.6-108.7,43.8-93.4,123.6c-3.6,0-7.1,0.4-10.4-0.1c-18.9-2.6-37.8-6.3-56.8-7.8c-25.9-2-36.7-19.1-42.8-40.6c-5.9-20.8-5.8-41.4,8.7-59.7c1.9-2.5,2.3-6.7,2.3-10.1c0.1-13.7,0-27.5-0.5-41.2C22.6,415.3,41,374.8,73.9,340c2.1-2.2,2-6.3,3-9.5c-0.9-0.8-1.8-1.6-2.8-2.5c5.7-1.7,11.2-4.5,17-5c43.1-4,86.2-9.7,129.3-10.6c80.8-1.7,161.8-1.2,242.6-0.1c32,0.4,64,5.2,96,7.5c6.1,0.4,15,6.5,16.2-3.7c20.1,11.9,40.4,23.4,60.2,35.7c19.9,12.4,40.5,24.1,58.6,38.9c27.7,22.6,59.1,30.8,93.8,34.1c45.9,4.4,91.7,11,137.4,17.9c35.7,5.5,62.5,35.9,64.6,75.3c1.2,22.8-2,46-5.2,68.8c-2.1,14.9-12.9,22.7-26.2,31.2c-16.5,10.6-32.5,11.8-50.1,12c-1.4,0-2.8-0.4-4.5-0.7c14.6-48.5,3.9-89.1-38.4-118.3c-32.3-22.3-75.6-20.9-108.1,1.2c-37,25.1-48.1,60.7-36.5,117.1C585,629.3,449.2,629.3,311.6,629.3L311.6,629.3z M64.2,419.9c52.8,0,103.6,0.1,154.4-0.2c2.9,0,6.6-2.7,8.5-5.2c15.9-21.9,31.6-43.9,46.9-66.2c2.4-3.5,4-8.9,3-12.7c-0.5-1.9-7.4-3.4-11.3-3.2c-47.2,2.4-94.4,5.1-141.5,8c-3.8,0.2-8.4,1-11.1,3.3C90.1,363.6,74,388.2,64.2,419.9L64.2,419.9z M630.2,426.1v-46c-18.9-11.3-39.8-25.8-62.4-36.6c-23.9-11.3-50.6-10.4-76.5-8.7c-3.6,0.2-9.7,5.7-9.8,8.8c-0.8,27.3-0.4,54.6-0.4,82.5H630.2L630.2,426.1z M439.9,335.8c-34,0-67.1-0.1-100.2,0.1c-10,0-17,5.3-20.9,14.4c-5.8,13.2-11.4,26.4-17.1,39.6c-9.1,21,5.2,31.8,22.7,32.3c36.7,1,73.5,0.3,110.3,0.2c1.7,0,3.3-0.6,5.3-1V335.8z M218.8,688.7c-51.3,0-92.7-41.1-92.6-91.9c0.1-50.6,42-92.1,92.9-91.9c50.5,0.2,91.5,41,91.9,91.7C311.4,647.4,270.1,688.7,218.8,688.7z M904.5,592.4c0.1,51.1-40.7,91.9-92,92c-51.3,0.1-92.5-40.7-92.6-91.6c-0.1-50.8,41.3-92.2,92.2-92.3C863.2,500.4,904.4,541.4,904.5,592.4z M230.3,598.9c-6.2,2.7-10,5.7-13.1,5.1c-2.5-0.5-4.3-5.2-6.4-8.1c3.2-2.2,6.2-5.9,9.5-6.1C222.7,589.7,225.4,594.2,230.3,598.9z M207.8,541.4v29.8c-7.1-7.9-12.9-14.4-19.4-21.7C193.7,547.2,200.3,544.5,207.8,541.4z M163,585.9c2.9-7.2,5.6-13.7,8.8-21.5c7.2,7.6,13.3,14,20.4,21.5H163z M208.1,624.5v28.1c-7.7-3.2-14.2-5.9-20.5-8.5C194.9,637.2,201.2,631.2,208.1,624.5z M229.1,652.9v-31.4c7,9.2,12.3,16.2,18,23.7C243.4,646.8,236.9,649.6,229.1,652.9z M274.8,586.5h-30.7c8.3-7,15.1-12.8,22.6-19C268.7,572.2,271.3,578.5,274.8,586.5z M266.2,627.7c-7.3-7.6-13.4-13.9-19.4-20.3h27.8C271.5,614.9,268.7,621.6,266.2,627.7z M170,625.1c-1.5-3.6-4.2-10.1-7.4-17.7h27.5C183.9,612.9,177.3,618.8,170,625.1z M229,570.8v-29.5c7.6,3,14,5.5,22,8.6C243.3,557.3,236.9,563.4,229,570.8z M218.6,663.1c37.2,0,66.7-29.6,66.5-66.6c-0.3-36.4-29.9-65.9-66.3-65.9c-36.6,0-67.1,30.5-66.8,66.9C152.3,633.7,182.1,663.1,218.6,663.1L218.6,663.1z M878.7,592.1c-0.2-36.5-29.8-66-66.3-66c-36.7,0-67,30.3-66.7,66.9c0.2,36.8,30.3,66,67.6,65.7C849.8,658.5,878.9,628.9,878.7,592.1z M844.2,545.7c-7.2,7.6-13.3,14-21.1,22.1V537C830.2,539.9,836.9,542.7,844.2,545.7z M860.2,623.1c-7.5-7.6-13.6-13.8-19.7-20H868C865.2,610.3,862.6,616.9,860.2,623.1z M824.7,619.1c5.6,6.8,11.1,13.6,17.3,21.2c-4.9,2.1-11.4,4.9-19.2,8.3v-28C823.3,620.1,824,619.6,824.7,619.1z M763.7,621.3c-1.8-4.4-4.4-10.9-7.4-18.4h28.8C777.9,609,771.1,614.9,763.7,621.3z M860,561.8c2.6,6.3,5.2,12.5,8.3,20h-26.5C847.1,575.9,853.2,569.2,860,561.8z M781,639.8c6.9-7.5,12.9-13.9,20.4-22v30.2C794.2,645.2,787.6,642.5,781,639.8z M784.2,582.3h-27.6c2.9-7.5,5.5-14.1,8.3-21.4C771.8,568.6,777.8,575.2,784.2,582.3z M801.7,536.9v30.9c-7-9.1-12.5-16.2-18-23.5C787.4,542.8,794.1,540,801.7,536.9z M812.1,604.1c-3.7-5.7-7.3-8.9-7.1-11.9c0.1-2.6,5.2-7.3,7.1-6.8c3.1,0.8,6.9,4.5,7.6,7.7C820.2,595.3,816.1,598.6,812.1,604.1z"/></g>
</svg>